HIERARCHY
ROOT Hips
{
  OFFSET 13.6774 106.653 -34.4427
  CHANNELS 6 Xposition Yposition Zposition Zrotation Xrotation Yrotation
  JOINT ToSpine
  {
    OFFSET -2.69724 7.43032 -0.144315
    CHANNELS 3 Zrotation Xrotation Yrotation
    JOINT Spine
    {
      OFFSET -0.0310711 10.7595 1.96963
      CHANNELS 3 Zrotation Xrotation Yrotation
      JOINT Spine1
      {
        OFFSET 19.9056 3.91189 0.764692
        CHANNELS 3 Zrotation Xrotation Yrotation
        JOINT Neck
        {
          OFFSET 25.9749 7.03908 -0.130764
          CHANNELS 3 Zrotation Xrotation Yrotation
          JOINT Head
          {
            OFFSET 9.52751 0.295786 -0.907742
            CHANNELS 3 Zrotation Xrotation Yrotation
            End Site
            {
              OFFSET 16.4037 0.713936 2.7358
            }
          }
        }
        JOINT LeftShoulder
        {
          OFFSET 17.7449 4.33886 11.7777
          CHANNELS 3 Zrotation Xrotation Yrotation
          JOINT LeftArm
          {
            OFFSET 0.911315 1.27913 9.80584
            CHANNELS 3 Zrotation Xrotation Yrotation
            JOINT LeftForeArm
            {
              OFFSET 28.6126 1.18197 -3.53199
              CHANNELS 3 Zrotation Xrotation Yrotation
              JOINT LeftHand
              {
                OFFSET 27.5088 0.0218783 0.327423
                CHANNELS 3 Zrotation Xrotation Yrotation
                End Site
                {
                  OFFSET 18.6038 -0.000155887 0.382096
                }
              }
            }
          }
        }
        JOINT RightShoulder
        {
          OFFSET 17.1009 2.89543 -12.2328
          CHANNELS 3 Zrotation Xrotation Yrotation
          JOINT RightArm
          {
            OFFSET 1.4228 0.178766 -10.211
            CHANNELS 3 Zrotation Xrotation Yrotation
            JOINT RightForeArm
            {
              OFFSET 28.733 1.87905 2.64907
              CHANNELS 3 Zrotation Xrotation Yrotation
              JOINT RightHand
              {
                OFFSET 27.4588 0.290562 -0.101845
                CHANNELS 3 Zrotation Xrotation Yrotation
                End Site
                {
                  OFFSET 17.8396 -0.255518 -0.000602873
                }
              }
            }
          }
        }
      }
    }
  }
  JOINT LeftUpLeg
  {
    OFFSET -5.61296 -2.22332 -10.2353
    CHANNELS 3 Zrotation Xrotation Yrotation
    JOINT LeftLeg
    {
      OFFSET 2.56703 -44.7417 -7.93097
      CHANNELS 3 Zrotation Xrotation Yrotation
      JOINT LeftFoot
      {
        OFFSET 3.16933 -46.5642 -3.96578
        CHANNELS 3 Zrotation Xrotation Yrotation
        JOINT LeftToeBase
        {
          OFFSET 0.346054 -6.02161 12.8035
          CHANNELS 3 Zrotation Xrotation Yrotation
          End Site
          {
            OFFSET 0.134235 -1.35082 5.13018
          }
        }
      }
    }
  }
  JOINT RightUpLeg
  {
    OFFSET -5.7928 -1.72406 10.6446
    CHANNELS 3 Zrotation Xrotation Yrotation
    JOINT RightLeg
    {
      OFFSET -2.57161 -44.7178 -7.85259
      CHANNELS 3 Zrotation Xrotation Yrotation
      JOINT RightFoot
      {
        OFFSET -3.10148 -46.5936 -4.03391
        CHANNELS 3 Zrotation Xrotation Yrotation
        JOINT RightToeBase
        {
          OFFSET -0.0828122 -6.13587 12.8035
          CHANNELS 3 Zrotation Xrotation Yrotation
          End Site
          {
            OFFSET -0.131328 -1.35082 5.13018
          }
        }
      }
    }
  }
}
MOTION
Frames: 8
Frame Time: 0.03333333333333333
0.0000 93.1000 0.0000 73.3047 -25.8803 -0.9917 -71.0032 0.0031 87.9988 106.3009 73.3526 -21.4491 2.2234 20.9402 11.0734 -125.1802 32.7839 157.0099 161.0461 74.2579 -131.3158 0.8059 -7.0594 -16.8404 -54.9586 35.0156 -107.7936 6.0743 -5.5461 -126.2025 0.3208 -0.0053 0.0095 -2.1821 4.7826 46.1493 -101.2075 -3.0091 74.2232 4.5073 -6.8487 35.8795 0.0957 -0.9045 0.0005 -37.3462 18.9657 90.2413 -9.6552 67.4294 -4.0338 -0.1327 -22.9326 -2.0507 5.3469 -14.9864 18.0760 -40.8529 -22.9775 76.4974 0.7392 36.5989 -4.0469 -1.4473 5.9745 -0.6257 0.5051 -12.0494 2.0781 
0.0000 93.1000 0.0000 74.0995 -26.1364 -1.2304 -71.0040 -0.0637 87.9995 106.2181 73.4716 -20.7072 2.1055 21.0242 11.0937 -125.1189 32.8567 157.1649 160.9046 74.6449 -131.2711 1.1883 -7.1622 -16.7151 -54.7972 35.3040 -108.6830 5.6356 -4.9887 -126.0322 0.4509 -0.0988 0.0274 -1.9329 4.7987 45.9666 -100.5337 -2.7414 74.4013 4.9127 -6.8574 35.8633 -0.0105 -0.7817 0.2121 -37.0707 19.0333 90.1663 -10.0915 68.2247 -4.8960 -0.2254 -22.1628 -2.2265 5.9025 -15.7850 19.4591 -42.0614 -23.0130 76.1932 0.8872 36.1638 -4.1081 -1.2193 6.1404 -0.6885 0.6470 -11.4351 2.1128 
0.0000 93.1000 0.0000 73.9322 -26.4458 -1.1154 -71.0037 0.0860 87.9969 106.8272 73.4717 -20.0557 2.1912 20.9897 10.9443 -125.5779 32.8935 157.0034 160.8205 74.8549 -132.2810 1.1465 -7.0435 -16.4378 -54.6062 35.7596 -108.9630 5.0151 -4.2371 -125.3390 0.3278 0.0339 -0.0463 -1.9486 4.6350 46.1464 -100.0530 -2.8277 74.2715 4.8710 -6.6201 36.6573 -0.0369 -0.9710 0.0384 -36.7409 19.1748 90.0780 -10.2716 68.3255 -5.1075 -0.0986 -22.3444 -2.3439 5.9034 -16.0903 19.5617 -42.0271 -23.1765 76.8804 0.8731 36.0582 -3.1447 -0.8765 5.9043 -0.5530 0.6364 -12.2457 2.5018 
0.0000 93.1000 0.0000 74.2603 -26.3391 -2.1188 -71.0059 0.2550 87.9953 105.1069 73.7835 -19.9932 2.4517 20.8716 11.1399 -125.8871 32.9116 156.9852 160.9564 75.0951 -132.3459 0.9184 -7.3071 -17.0318 -54.1918 35.7833 -109.8289 4.7936 -4.3236 -125.4189 0.3603 0.1943 -0.0936 -2.0808 4.3026 46.3304 -100.8518 -2.0826 73.8133 4.9301 -6.9541 36.8403 -0.2310 -1.1634 -0.2418 -36.8611 19.0977 89.7073 -10.7123 68.2858 -5.5091 -0.1468 -22.5866 -2.2939 6.5095 -16.6743 20.6225 -41.9117 -22.9712 77.7076 1.1393 36.0028 -3.8522 -1.1126 6.1353 -0.5854 1.0329 -11.8339 2.3345 
0.0000 93.1000 0.0000 74.0185 -25.9968 -0.8362 -71.0100 -0.5474 87.9957 104.7207 73.7505 -19.3795 2.2081 21.1361 10.4859 -126.3084 33.1238 156.3234 161.8650 75.3485 -133.7654 0.6479 -7.6661 -16.9737 -53.5153 35.2875 -109.7517 3.7835 -3.8582 -125.3051 0.0879 -0.4976 0.2066 -2.3599 4.4346 46.1652 -101.2649 -1.4483 74.0574 4.1611 -7.6247 38.0585 0.3168 -0.5470 0.3095 -36.6991 19.0783 90.7785 -10.0207 68.3778 -4.3287 0.1541 -22.7147 -1.9147 6.3652 -15.6595 19.1386 -41.8757 -22.9089 77.9886 -0.4484 36.5893 -5.4027 -1.1436 6.0178 -1.0720 1.2034 -11.2287 2.9348 
0.0000 93.1000 0.0000 74.3124 -26.1105 -1.9821 -71.0094 -0.4257 87.9967 105.1632 73.4816 -20.4435 1.9677 21.2845 10.6016 -125.5101 33.4820 155.3540 164.7576 75.4808 -134.3628 0.5743 -8.0504 -16.8871 -53.0877 35.3432 -111.7479 4.0155 -3.1027 -123.9789 -0.1843 -0.4122 0.1447 -2.3468 4.9968 46.0706 -101.8689 -1.8774 73.8209 4.5584 -8.1158 41.1419 0.1942 -0.5750 0.3197 -36.8906 18.9516 90.9695 -10.1911 68.0862 -5.1753 -0.0042 -22.4675 -1.9056 6.5274 -15.8891 19.4915 -41.0683 -23.1082 79.1101 -0.0281 37.3420 -4.8398 -0.7604 6.4185 -1.0584 1.0791 -12.4540 2.5856 
0.0000 93.1000 0.0000 74.0637 -25.9454 -1.8596 -71.0106 -0.5075 87.9992 105.0501 74.0232 -20.6692 2.1063 21.3822 10.7636 -125.2331 33.4711 156.5293 162.8956 75.6397 -132.5984 0.5946 -8.0065 -17.2574 -52.8781 34.5785 -112.7442 4.3085 -3.4514 -121.8642 -0.3477 -0.4403 0.2532 -2.2561 5.2214 45.5760 -104.3201 -0.6438 73.3480 6.5458 -7.7652 45.0084 0.3035 -0.5334 0.3309 -37.0128 19.0900 91.1357 -10.4985 68.2189 -6.6905 -0.3843 -22.0609 -1.7881 6.4045 -16.8752 21.0755 -39.7333 -22.8128 80.4244 0.7858 39.2174 -4.3855 -1.7010 7.0241 -1.0130 1.3202 -14.8317 3.0842 
0.0000 93.1000 0.0000 73.5671 -26.2345 -1.9553 -71.0077 -0.5239 88.0010 104.9288 74.1224 -20.7606 2.2265 21.2464 11.4021 -124.3820 33.7182 156.4360 161.8089 75.1936 -130.3751 0.7364 -8.4534 -17.4371 -53.6149 33.7363 -116.8313 5.0246 -4.1144 -118.3424 -0.1996 -0.4409 0.1743 -2.1091 5.4406 44.6915 -107.8898 -0.2144 73.8565 7.0004 -6.3092 49.9689 0.2991 -0.5688 0.3210 -37.7878 20.0473 91.3009 -9.9181 67.4249 -5.8347 -0.3604 -22.1983 -2.0296 6.4759 -16.8204 20.7027 -37.2377 -22.1770 83.3545 1.2131 42.0032 -0.0167 -2.2120 7.3598 -0.8314 1.6472 -15.8900 2.9512 
